<svg width="166" height="167" viewBox="0 0 166 167" fill="none"
  xmlns="http://www.w3.org/2000/svg">
  <path fill-rule="evenodd" clip-rule="evenodd" d="M83.3295 166.23H82.6705C49.7081 166.23 30.436 162.915 17.0154 149.754C3.1854 135.664 0 116.522 0 83.6996V82.7709C0 49.9484 3.1854 30.6762 17.0154 16.7164C30.5658 3.56543 49.7081 0.240234 82.6605 0.240234H83.3295C116.152 0.240234 135.424 3.56543 148.985 16.7164C162.815 30.806 166 49.9484 166 82.7709V83.6996C166 116.532 162.805 135.804 148.985 149.754C135.424 162.905 116.292 166.23 83.3295 166.23ZM145.84 80.771C146.48 80.801 147 81.3308 147 81.9706H146.99V84.6498C146.99 85.2996 146.47 85.8294 145.83 85.8494C122.868 86.7191 108.902 89.6382 99.115 99.4252C89.338 109.202 86.4189 123.148 85.5392 146.071C85.5092 146.71 84.9794 147.23 84.3396 147.23H81.6504C81.0006 147.23 80.4708 146.71 80.4508 146.071C79.5711 123.148 76.652 109.202 66.875 99.4252C57.0981 89.6482 43.1225 86.7191 20.1596 85.8494C19.5198 85.8194 19 85.2896 19 84.6498V81.9706C19 81.3208 19.5198 80.791 20.1596 80.771C43.1225 79.9013 57.0881 76.9822 66.875 67.1952C76.672 57.3983 79.5911 43.4027 80.4608 20.3999C80.4908 19.7601 81.0206 19.2402 81.6604 19.2402H84.3396C84.9894 19.2402 85.5192 19.7601 85.5392 20.3999C86.4089 43.4127 89.328 57.3983 99.125 67.1952C108.902 76.9722 122.878 79.9013 145.84 80.771Z" fill="white"/>
</svg>
