<svg xmlns="http://www.w3.org/2000/svg" width="500" height="500" viewBox="0 0 500 500">
  <defs>
    <style>
      .cls-1 {
        fill: #7071e8;
        fill-rule: evenodd;
      }
    </style>
  </defs>
  <path id="S" class="cls-1" d="M314.3,476.27q40.264-9.712,71.7-28.811t49.446-47.91q18.014-28.8,18.013-67.657,0-44.02-31.787-75.426t-89.709-43.7l-81.939-18.129q-24.735-5.826-36.732-15.214-12.019-9.378-12.008-24.279,0-12.943,9.889-22.66t28.961-15.215q19.073-5.493,44.5-5.5a255.043,255.043,0,0,1,49.446,5.18,272.235,272.235,0,0,1,47.327,13.6q25.429,9.711,43.8,6.15t28.255-14.567a44.025,44.025,0,0,0,11.3-25.9,47.37,47.37,0,0,0-6-28.163q-7.418-13.262-24.37-21.042a296.65,296.65,0,0,0-75.229-25.25Q319.24,14,285.339,14a302.3,302.3,0,0,0-80.173,10.359q-37.8,10.364-67.459,29.782t-46.62,47.91q-16.953,28.5-16.953,65.39,0,45.978,31.08,76.721t85.471,42.407l81.233,17.481q28.244,5.826,41.323,16.185,13.062,10.365,13.068,25.25,0,18.786-21.545,30.753-21.555,11.988-61.807,11.978-27.549,0-62.867-6.151a281.117,281.117,0,0,1-67.106-20.394q-21.191-8.406-37.791-4.856-16.605,3.567-26.842,15.215a52.907,52.907,0,0,0-12.715,27.192,48.121,48.121,0,0,0,4.945,30.106Q48,443.9,67.07,452.315a353.574,353.574,0,0,0,51.565,18.775,379.443,379.443,0,0,0,56.157,11.33,450.247,450.247,0,0,0,55.45,3.561A357.352,357.352,0,0,0,314.3,476.27Z"/>
</svg>